<svg width="98" height="64" viewBox="0 0 98 64" fill="none" xmlns="http://www.w3.org/2000/svg">
<path d="M0.09 0H66.79V8.34H8.51V20.59H24V28.92H8.51V48.27H0L0.09 0Z" fill="white"/>
<path d="M48.25 14.41C50.5798 14.3528 52.897 14.7681 55.0619 15.6307C57.2268 16.4933 59.1947 17.7853 60.8467 19.429C62.4988 21.0727 63.8009 23.0339 64.6746 25.1944C65.5482 27.3549 65.9753 29.67 65.93 32C65.9903 34.3317 65.576 36.6514 64.7123 38.818C63.8485 40.9847 62.5533 42.9532 60.9054 44.6039C59.2575 46.2547 57.2912 47.5532 55.126 48.4206C52.9608 49.2881 50.6418 49.7063 48.31 49.65C45.9786 49.7049 43.6602 49.2857 41.4957 48.4177C39.3311 47.5498 37.3654 46.2512 35.7178 44.6008C34.0701 42.9503 32.7749 40.9824 31.9107 38.8164C31.0464 36.6503 30.6311 34.3313 30.69 32C30.6425 29.6795 31.064 27.3734 31.9292 25.2197C32.7945 23.0661 34.0857 21.1094 35.7255 19.4668C37.3652 17.8243 39.3197 16.5297 41.4719 15.6608C43.624 14.7918 45.9295 14.3664 48.25 14.41ZM48.31 42C49.6318 42.0315 50.9463 41.7943 52.1738 41.303C53.4013 40.8116 54.5163 40.0761 55.4512 39.1412C56.3861 38.2062 57.1216 37.0913 57.613 35.8638C58.1044 34.6363 58.3415 33.3218 58.31 32C58.31 29.3478 57.2564 26.8043 55.3811 24.9289C53.5057 23.0535 50.9622 22 48.31 22C45.6578 22 43.1143 23.0535 41.2389 24.9289C39.3636 26.8043 38.31 29.3478 38.31 32C38.2713 33.3237 38.5035 34.6414 38.9923 35.8721C39.4812 37.1029 40.2164 38.2208 41.1528 39.1572C42.0892 40.0936 43.2071 40.8288 44.4378 41.3177C45.6686 41.8065 46.9863 42.0387 48.31 42Z" fill="white"/>
<path d="M73.72 15.41H82.1V48.69C82.1 59.97 72.67 63.29 68.1 63.29L0 63.23V55.17H67C69.38 55.17 73.73 52.51 73.73 47.04L73.72 15.41ZM73.72 0H82.1V8.46H73.72V0Z" fill="white"/>
<path d="M89 0H97.39V8.46H89V0ZM89 15.37H97.39V47.86H89V15.37Z" fill="white"/>
</svg>
